<svg xmlns="http://www.w3.org/2000/svg" viewBox="0 0 284 35.5" enable-background="new 0 0 284 35.5"><path d="M0 0h284v35.5h-284z"/><g fill="#929497"><path d="M178.4 18.8v6.1h-3.1v-14.3h4.8c2.6 0 4.7.6 4.7 3.6 0 3.6-2.6 4.6-6.4 4.6zm1-6.9h-1v5.6c1.6 0 3.2-.6 3.2-2.9 0-2.1-1.1-2.7-2.2-2.7zM194.5 24.8l-3.7-6.6h-.2v6.6h-3.1v-14.2h5.2c2.9 0 4.4 1.2 4.4 3.3 0 2.1-1.4 3.5-3.2 3.8l4.4 7.1h-3.8zm-3-12.9h-.9v5.5c1.7 0 3.3-.4 3.3-3-.1-1.3-.3-2.5-2.4-2.5zM206.6 25.1c-4.1 0-7.7-2-7.7-7.2 0-4.2 2.9-7.5 8-7.5 5 0 7.8 2.7 7.8 7.5 0 4.2-3.6 7.2-8.1 7.2zm.3-13.5c-3.7 0-4.6 3.7-4.6 6.7 0 3.9 2 5.6 4.3 5.6 2.8 0 4.7-2.4 4.7-6.5 0-3-1.5-5.8-4.4-5.8zM220.5 18.8v6.1h-3.1v-14.3h4.8c2.6 0 4.7.6 4.7 3.6 0 3.6-2.6 4.6-6.4 4.6zm1-6.9h-1v5.6c1.6 0 3.2-.6 3.2-2.9 0-2.1-1.1-2.7-2.2-2.7zM229.6 24.8v-14.2h7.7v1.5h-4.6v4.6h4.5v1.5h-4.5v5.1h4.6v1.5h-7.7zM247.7 24.8l-3.7-6.6h-.2v6.6h-3.1v-14.2h5.2c2.9 0 4.4 1.2 4.4 3.3 0 2.1-1.4 3.5-3.2 3.8l4.4 7.1h-3.8zm-2.9-12.9h-.9v5.5c1.7 0 3.3-.4 3.3-3-.1-1.3-.3-2.5-2.4-2.5zM258.6 12.1v12.7h-3.1v-12.7h-3.7v-1.5h10.6v1.5h-3.8zM270.1 18.3v6.5h-3.1v-6l-4.4-8.2h3.3l3.4 6.3 3.2-6.3h1.9l-4.3 7.7z"/></g><g fill="#fff"><path d="M91.1 12.1v4.6h4.6v1.5h-4.6v6.6h-3.1v-14.2h7.8v1.5h-4.7zM105.9 24.8l-3.7-6.6h-.2v6.6h-3.1v-14.2h5.2c2.9 0 4.4 1.2 4.4 3.3 0 2.1-1.4 3.5-3.3 3.8l4.4 7.1h-3.7zm-3-12.9h-.9v5.5c1.7 0 3.3-.4 3.3-3 0-1.3-.3-2.5-2.4-2.5zM119.4 24.8l-1.5-4.2h-4.7l-1.6 4.2h-1.9l5.9-14.2h1.6l5.7 14.2h-3.5zm-3.8-10.2l-1.9 4.8h3.8l-1.9-4.8zM127.4 25.1c-1.2 0-2.3-.2-3.4-.9l.6-2.6h.4c.2 1.4 1.5 2.3 2.9 2.3 1.6 0 2.4-.9 2.4-2.1 0-1.4-1.1-2-2.3-2.6-1.8-.8-3.9-1.6-3.9-4.6 0-2.5 1.8-4.3 4.8-4.3 1.4 0 2.4.3 3.4 1l-.7 2.1h-.3c-.3-1.1-1.3-1.8-2.4-1.8-1.3 0-2.3.5-2.3 1.9s1.4 2 3 2.7c1.6.9 3.4 1.9 3.4 4.4-.2 2.7-2.5 4.5-5.6 4.5zM135.5 24.8v-14.2h7.8v1.5h-4.7v4.6h4.6v1.5h-4.6v5.1h4.7v1.5h-7.8zM153.7 24.8l-3.7-6.6h-.2v6.6h-3.1v-14.2h5.2c2.9 0 4.4 1.2 4.4 3.3 0 2.1-1.4 3.5-3.3 3.8l4.4 7.1h-3.7zm-3-12.9h-.9v5.5c1.7 0 3.3-.4 3.3-3 0-1.3-.3-2.5-2.4-2.5zM161.9 25.1c-1.2 0-2.3-.2-3.4-.9l.6-2.6h.4c.2 1.4 1.5 2.3 2.9 2.3 1.6 0 2.4-.9 2.4-2.1 0-1.4-1.1-2-2.3-2.6-1.8-.8-3.9-1.6-3.9-4.6 0-2.5 1.8-4.3 4.7-4.3 1.4 0 2.4.3 3.4 1l-.7 2.1h-.3c-.3-1.1-1.3-1.8-2.4-1.8-1.3 0-2.3.5-2.3 1.9s1.4 2 2.9 2.7c1.6.9 3.4 1.9 3.4 4.4.1 2.7-2.3 4.5-5.4 4.5z"/></g></svg>