<?xml version="1.0" encoding="utf-8"?>
<!-- Generator: Adobe Illustrator 17.1.0, SVG Export Plug-In . SVG Version: 6.00 Build 0)  -->
<!DOCTYPE svg PUBLIC "-//W3C//DTD SVG 1.1//EN" "http://www.w3.org/Graphics/SVG/1.1/DTD/svg11.dtd">
<svg version="1.1" id="Layer_1" xmlns="http://www.w3.org/2000/svg" xmlns:xlink="http://www.w3.org/1999/xlink" x="0px" y="0px"
	 viewBox="0 0 284 35.5" enable-background="new 0 0 284 35.5" xml:space="preserve">
<rect x="0" y="0" width="284" height="35.5"/>
<g>
	<g>
		<path fill="#929497" d="M178.4,18.8v6.1h-3.1V10.6h4.8c2.6,0,4.7,0.6,4.7,3.6C184.8,17.8,182.2,18.8,178.4,18.8z M179.4,11.9h-1
			v5.6c1.6,0,3.2-0.6,3.2-2.9C181.6,12.5,180.5,11.9,179.4,11.9z"/>
		<path fill="#929497" d="M194.5,24.8l-3.7-6.6h-0.2v6.6h-3.1V10.6h5.2c2.9,0,4.4,1.2,4.4,3.3c0,2.1-1.4,3.5-3.2,3.8l4.4,7.1H194.5z
			 M191.5,11.9c0,0-0.6,0-0.9,0v5.5c1.7,0,3.3-0.4,3.3-3C193.8,13.1,193.6,11.9,191.5,11.9z"/>
		<path fill="#929497" d="M206.6,25.1c-4.1,0-7.7-2-7.7-7.2c0-4.2,2.9-7.5,8-7.5c5,0,7.8,2.7,7.8,7.5
			C214.7,22.1,211.1,25.1,206.6,25.1z M206.9,11.6c-3.7,0-4.6,3.7-4.6,6.7c0,3.9,2,5.6,4.3,5.6c2.8,0,4.7-2.4,4.7-6.5
			C211.3,14.4,209.8,11.6,206.9,11.6z"/>
		<path fill="#929497" d="M220.5,18.8v6.1h-3.1V10.6h4.8c2.6,0,4.7,0.6,4.7,3.6C226.9,17.8,224.3,18.8,220.5,18.8z M221.5,11.9h-1
			v5.6c1.6,0,3.2-0.6,3.2-2.9C223.7,12.5,222.6,11.9,221.5,11.9z"/>
		<path fill="#929497" d="M229.6,24.8V10.6h7.7v1.5h-4.6v4.6h4.5v1.5h-4.5v5.1h4.6v1.5H229.6z"/>
		<path fill="#929497" d="M247.7,24.8l-3.7-6.6h-0.2v6.6h-3.1V10.6h5.2c2.9,0,4.4,1.2,4.4,3.3c0,2.1-1.4,3.5-3.2,3.8l4.4,7.1H247.7z
			 M244.8,11.9c0,0-0.6,0-0.9,0v5.5c1.7,0,3.3-0.4,3.3-3C247.1,13.1,246.9,11.9,244.8,11.9z"/>
		<path fill="#929497" d="M258.6,12.1v12.7h-3.1V12.1h-3.7v-1.5h10.6v1.5H258.6z"/>
	</g>
	<path fill="#929497" d="M270.1,18.3v6.5H267v-6l-4.4-8.2h3.3l3.4,6.3l3.2-6.3h1.9L270.1,18.3z"/>
</g>
<g>
	<path fill="#FFFFFF" d="M91.1,12.1v4.6h4.6v1.5h-4.6v6.6H88V10.6h7.8v1.5H91.1z"/>
	<path fill="#FFFFFF" d="M105.9,24.8l-3.7-6.6H102v6.6h-3.1V10.6h5.2c2.9,0,4.4,1.2,4.4,3.3c0,2.1-1.4,3.5-3.3,3.8l4.4,7.1H105.9z
		 M102.9,11.9c0,0-0.6,0-0.9,0v5.5c1.7,0,3.3-0.4,3.3-3C105.3,13.1,105,11.9,102.9,11.9z"/>
	<path fill="#FFFFFF" d="M119.4,24.8l-1.5-4.2h-4.7l-1.6,4.2h-1.9l5.9-14.2h1.6l5.7,14.2H119.4z M115.6,14.6l-1.9,4.8h3.8
		L115.6,14.6z"/>
	<path fill="#FFFFFF" d="M127.4,25.1c-1.2,0-2.3-0.2-3.4-0.9l0.6-2.6h0.4c0.2,1.4,1.5,2.3,2.9,2.3c1.6,0,2.4-0.9,2.4-2.1
		c0-1.4-1.1-2-2.3-2.6c-1.8-0.8-3.9-1.6-3.9-4.6c0-2.5,1.8-4.3,4.8-4.3c1.4,0,2.4,0.3,3.4,1l-0.7,2.1h-0.3c-0.3-1.1-1.3-1.8-2.4-1.8
		c-1.3,0-2.3,0.5-2.3,1.9c0,1.4,1.4,2,3,2.7c1.6,0.9,3.4,1.9,3.4,4.4C132.8,23.3,130.5,25.1,127.4,25.1z"/>
	<path fill="#FFFFFF" d="M135.5,24.8V10.6h7.8v1.5h-4.7v4.6h4.6v1.5h-4.6v5.1h4.7v1.5H135.5z"/>
	<path fill="#FFFFFF" d="M153.7,24.8l-3.7-6.6h-0.2v6.6h-3.1V10.6h5.2c2.9,0,4.4,1.2,4.4,3.3c0,2.1-1.4,3.5-3.3,3.8l4.4,7.1H153.7z
		 M150.7,11.9c0,0-0.6,0-0.9,0v5.5c1.7,0,3.3-0.4,3.3-3C153.1,13.1,152.8,11.9,150.7,11.9z"/>
	<path fill="#FFFFFF" d="M161.9,25.1c-1.2,0-2.3-0.2-3.4-0.9l0.6-2.6h0.4c0.2,1.4,1.5,2.3,2.9,2.3c1.6,0,2.4-0.9,2.4-2.1
		c0-1.4-1.1-2-2.3-2.6c-1.8-0.8-3.9-1.6-3.9-4.6c0-2.5,1.8-4.3,4.7-4.3c1.4,0,2.4,0.3,3.4,1l-0.7,2.1h-0.3c-0.3-1.1-1.3-1.8-2.4-1.8
		c-1.3,0-2.3,0.5-2.3,1.9c0,1.4,1.4,2,2.9,2.7c1.6,0.9,3.4,1.9,3.4,4.4C167.4,23.3,165,25.1,161.9,25.1z"/>
</g>
</svg>
