<svg xmlns="http://www.w3.org/2000/svg" viewBox="225 253.3 150 93.5" enable-background="new 225 253.3 150 93.5"><path fill="#fff" d="M258.7 339.1s-1.5-.1-4.5-.1l-5.1.1v-.2c1.2 0 1.7-.8 1.7-2.1v-9.3c0-1.2-.5-1.6-1.6-1.6l-.2-.2c4.5 0 8.3-1.5 8.3-1.5v13.5c0 .9.5 1.2 1.2 1.2v.2h.2zm-7.9-18.8c0-1.7 1.1-2.9 3.4-2.9s3.5 1.3 3.5 2.9c0 1.6-1.2 2.8-3.5 2.8s-3.4-1.1-3.4-2.8"/><path fill="#fff" d="M269.7 325c-.8 0-1.2.5-1.2 1.1 0 .5.2.8.4 1.5l3 8.2 1.9-5.6c.4-1.1.6-2.2.6-2.9 0-1.3-.6-2.2-2.4-2.2v-.2s1.3.2 3.2.2c1.7 0 2.8-.2 2.8-.2v.3c-1.5 0-2.7 1.8-3.5 4l-3.5 10.1h-4.6l-5-12.6c-.4-.9-.7-1.5-1.9-1.5v-.3s2.7.2 5.8.2l4.5-.2-.1.1zM288.8 338c1.6 0 2.9-.5 4.1-1.3l.2.2c-1.6 1.9-3.8 2.8-6.9 2.8-5.5 0-8.5-2.9-8.5-7.4 0-4.4 4-8.1 9.2-8.1 4.1 0 7 1.8 7.2 5.8l-.4.4h-9v1.3c-.2 3.6 1.1 6.3 4.1 6.3m-.9-8.2c.1-.6.2-1.2.2-1.7 0-2.3-.7-3.6-1.5-3.6-1 0-1.6 1.8-1.9 5.7l3.2-.4zM303.7 327.2v10.4c0 .9.5 1.2 1.6 1.2v.3s-1.8-.1-4.8-.1l-5.1.1v-.3c1.2 0 1.7-.8 1.7-2.1v-9.2c0-1.2-.5-1.6-1.6-1.6l-.1-.2c4.5 0 8.3-1.5 8.3-1.5v2.7c1.5-.5 2.2-2.7 4.5-2.7 1.7 0 2.8 1.3 2.8 2.8 0 1.6-1.1 3.2-3 3.2-.7 0-1.5-.3-1.9-.6.2-.3.4-.8.4-1.4 0-.8-.4-1.4-1.2-1.4-.7.1-1.1.3-1.6.4"/><path fill="#fff" d="M324.8 329.4h-.3c-.5-2.3-2.2-5-4.9-5-.8 0-1.5.4-1.5 1.4 0 3.3 8 3.7 8 8.8 0 3.2-2.5 5.2-7.3 5.2-2.1 0-2.4-.7-6-.7l-.2-5.3h.2c.6 2.9 3 5.7 5.7 5.7 1.2 0 1.8-.6 1.8-1.5 0-3.5-7.8-4-7.8-8.9 0-3.1 2.8-4.8 6.9-4.8 2.1 0 3.2.7 5.5.7l-.1 4.4zM337.3 339.1s-1.5-.1-4.5-.1l-5.1.1v-.2c1.2 0 1.7-.8 1.7-2.1v-9.3c0-1.2-.5-1.6-1.6-1.6l-.2-.2c4.5 0 8.3-1.5 8.3-1.5v13.5c0 .9.5 1.2 1.2 1.2v.2h.2zm-8.8-18.8c0-1.7 1.1-2.9 3.4-2.9s3.5 1.3 3.5 2.9c0 1.6-1.2 2.8-3.5 2.8-2.4.1-3.4-1.1-3.4-2.8M339.2 333c0-5.1 3.6-8.8 9.3-8.8l1.1.1v-4.3c0-1.1-.5-1.4-1.6-1.4l-.2-.2c4.5 0 8.3-1.5 8.3-1.5v19.7c0 1.2.5 1.5 1.6 1.5l.2.2c-4.5 0-8.1 1.5-8.1 1.5l-.2-2.3c-1.5.8-2.6 2.3-4.8 2.3-3.5-.1-5.6-3.1-5.6-6.8m10.3 4.1v-6.6c0-4.5-.8-6.1-1.8-6.1s-1.7 1.9-1.7 7.3c0 4.9 1.1 6.2 1.8 6.2s1-.4 1.7-.8"/><path fill="#fff" d="M369.8 338c1.6 0 2.9-.5 4.1-1.3l.2.2c-1.6 1.9-3.8 2.8-6.9 2.8-5.5 0-8.5-2.9-8.5-7.4 0-4.4 4-8.1 9.2-8.1 4.1 0 7 1.8 7.2 5.8l-.4.4h-9v1.3c-.1 3.6 1.1 6.3 4.1 6.3m-.8-8.2c.1-.6.2-1.2.2-1.7 0-2.3-.7-3.6-1.5-3.6-1 0-1.5 1.8-1.9 5.7l3.2-.4zM260.7 342.7c0-.9-.2-1.8-1.2-2.8.5-.5 1.3-.8 2.2-.8 1.7 0 2.7 1.2 2.7 2.4 0 1.8-1.2 5.2-8.4 5.2s-14.6-3.5-17-11.4l-1.2-3.7c-.5-1.5-.9-2.4-2.7-2.4v6.8c0 2.2.7 2.6 2.2 2.6v.3s-2.6-.1-5.7-.1l-5.7.1v-.3c1.5 0 2.2-1.4 2.2-3.7v-13.8c0-2.2-.7-2.6-2.2-2.6v-.3s2.6.1 5.7.1l5.9-.1c4.4 0 8.2 1.3 8.2 5.3 0 2.8-2.2 5-7.5 5.5v.2c3.5 0 6.1 1.8 7.5 5.4l1.3 3.3c2 5.2 4.7 8.5 8.8 8.5 4.9-.1 4.9-2.8 4.9-3.7m-25.5-13.7c2.4 0 3.5-1.9 3.5-5.5 0-2.8-.8-4.9-2.8-4.9-.2 0-.5 0-.8.2.1-.1.1 10.2.1 10.2zM259.7 301.8c0-6.4 4.2-11.5 11.2-11.5s11 4.2 11 10.5c0 5.9-3.6 10.8-9.9 11.5 5.3.5 14.5 4.2 23.2 4.2 4.5 0 7.5-.7 10.2-2l.2.2c-2.5 4.2-6.5 6.8-12.3 6.8-8.5 0-18.4-9.1-22.9-9.1-6.7-.1-10.7-4.3-10.7-10.6m14.4-.1c0-6.8-1.6-11-3.6-11-1.8 0-2.8 2.7-2.8 10.4 0 6.9 1.7 11 3.6 11 1.7-.1 2.8-2.7 2.8-10.4"/><path fill="#fff" d="M293.1 297.5l7.5-.2.2.2v11.7c0 1.2.5 1.5 1.5 1.5l.2.2c-4.5 0-8.1 1.5-8.1 1.5l-.3-2.3c-2 .7-3.3 2.3-5.7 2.3s-3.8-1.5-3.8-4.2v-8.9c0-1.4-.5-1.6-1.6-1.6v-.3l8.1-.2.2.2v11.6c0 .8.5 1.3 1.1 1.3.5 0 .9-.2 1.7-.5v-10.9c0-.9-.5-1.2-1.2-1.2l.2-.2zM314.7 310.7c1.6 0 2.9-.5 4.1-1.3l.2.2c-1.6 1.9-3.8 2.8-6.9 2.8-5.5 0-8.5-2.9-8.5-7.4 0-4.4 4-8.1 9.2-8.1 4.1 0 7 1.8 7.2 5.8l-.4.4h-9v1.3c-.1 3.5 1.1 6.3 4.1 6.3m-.9-8.3c.1-.6.1-1.2.1-1.7 0-2.3-.7-3.6-1.5-3.6-1 0-1.6 1.8-1.9 5.7l3.3-.4zM332.2 310.7c1.6 0 2.9-.5 4.1-1.3l.2.2c-1.6 1.9-3.8 2.8-6.9 2.8-5.5 0-8.5-2.9-8.5-7.4 0-4.4 4-8.1 9.2-8.1 4.1 0 7 1.8 7.2 5.8l-.4.4h-9v1.3c-.2 3.5 1.1 6.3 4.1 6.3m-.9-8.3c.1-.6.1-1.2.1-1.7 0-2.3-.6-3.6-1.5-3.6-1 0-1.6 1.8-1.9 5.7l3.3-.4zM347.8 311.8s-1.5-.1-4.5-.1l-5.1.1v-.3c1.2 0 1.7-.8 1.7-2.1v-9.2c0-1.2-.5-1.6-1.5-1.6l-.2-.2c4.5 0 8.3-1.5 8.3-1.5v2.3c1.8-.7 3.3-2.3 5.7-2.3s3.8 1.5 3.8 4.2v8.8c0 1.3.5 1.6 1.6 1.6v.3s-2-.1-4.9-.1c-2.8 0-4.5.1-4.5.1v-.3c.8 0 1.1-.4 1.1-1.4v-9.8c0-.8-.5-1.3-1.1-1.3-.5 0-.9.2-1.7.5v10.9c0 .9.5 1.2 1.2 1.2l.1.2zM371.5 302.1h-.3c-.5-2.3-2.2-5-4.9-5-.8 0-1.5.4-1.5 1.4 0 3.3 8 3.7 8 8.8 0 3.2-2.5 5.2-7.3 5.2-2.1 0-2.4-.7-6-.7l-.2-5.3h.2c.7 2.9 3 5.7 5.7 5.7 1.2 0 1.8-.6 1.8-1.5 0-3.5-7.8-4-7.8-8.8 0-3.1 2.8-4.8 6.9-4.8 2.1 0 3.2.7 5.5.7l-.1 4.3z"/><path fill="#1CBBB4" d="M261.5 285s-2-.2-6.3-.2c-4.2 0-7.2.2-7.2.2v-.4c1.6 0 2.4-1.2 2.4-2.9v-13.2c0-1.6-.7-2.2-2.2-2.2l-.2-.3c6.4 0 11.8-2.1 11.8-2.1v19.1c0 1.2.7 1.6 1.6 1.6l.1.4zm-11.3-26.7c0-2.4 1.5-4.2 4.8-4.2 3.2 0 4.8 1.8 4.8 4.2 0 2.3-1.6 4.1-4.8 4.1-3.2 0-4.8-1.7-4.8-4.1"/><path fill="#1CBBB4" d="M277.6 285s-2-.2-6.3-.2c-4.2 0-7.2.2-7.2.2v-.4c1.6 0 2.4-1.2 2.4-2.9v-23.8c0-1.6-.7-2.2-2.2-2.2l-.2-.4c6.4 0 11.8-2.1 11.8-2.1v29.8c0 1.2.7 1.6 1.6 1.6l.1.4zM293.8 265c-1.2 0-1.6.7-1.6 1.5 0 .6.2 1.2.5 2.1l4.2 11.6 2.8-8c.5-1.5.9-3.1.9-4.2 0-1.8-.9-3.2-3.3-3.2v-.4s1.9.2 4.5.2c2.4 0 3.9-.2 3.9-.2v.4c-2.2 0-3.8 2.5-4.9 5.7l-5.4 15.3c-1.5 4.1-3.2 8.9-7.8 8.9-3.6 0-5.7-2.1-5.7-4.7 0-2.3 1.8-4.2 4.6-4.2 2.9 0 4.2 2.2 4.2 3.7-1.8.4-2.8 1.5-2.8 2.8 0 .8.5 1.5 1.4 1.5 2.5 0 4.5-4.9 5.5-7.5l.5-1.4h-6.2l-7.2-17.8c-.5-1.3-1-2.1-2.7-2.1v-.4s3.8.2 8.2.2c4.3 0 6.4-.2 6.4-.2v.4zM263.8 286c-2.1 1.4-5.8 2.3-9.2 2.1-7.1-.5-10.1-3.6-16.5-3.6v-23.3c0-3.3 1-5.3 3.2-5.3v-.5s-3.7.2-8.1.2c-4.5 0-8.2-.2-8.2-.2v.5c2.2 0 3.2.8 3.2 3.8v21.8c0 3-1 3.2-3.2 3.2v.5s1.2-.1 3.2-.1c2.8 0 6.2-.2 8.8.6 6.8 2.2 12.5 7.2 17.5 7.2 4.7 0 7.3-2.2 9.4-6.5l-.1-.4z"/><path fill="#fff" d="M242.4 311c-.6 0-1.2-.4-1.2-1.9 0-2.1.3-3.5.3-6.3 0-4.1-1.7-6-6.8-6-3.7 0-7.8 1.4-7.8 3.9 0 1.4 1.1 2.3 2.7 2.3.9 0 2.4-.4 3.2-1.1-.5-.9-.8-1.7-.8-2.8 0-1.2.5-2.2 1.7-2.2s1.5.8 1.5 2.9c0 2.3-.2 4.3-.2 4.3-5.8 0-9 1.8-9 4.9 0 2.3 1.9 3.2 4.1 3.2 2.6 0 4.2-1.4 5.5-1.8.8 1.2 2.3 1.7 3.9 1.7 1.8 0 3.3-.6 3.8-1.6l-.2-.1c0 .3-.4.6-.7.6m-8.3-.3c-.9 0-1.4-.8-1.4-2.2 0-1.9.7-3.7 2.3-4 0 0-.2.8-.2 2.5 0 2.6.6 3.4.6 3.4-.5 0-.9.3-1.3.3M252.8 310.3c-.6 0-1.2-.4-1.2-1.4v-11.5h1.8v-.3h-1.8v-3.8l-.4-.1c-1.6 2.2-4.5 4-7.4 4v.3h1.2v10.5c0 3.2 1.8 4.2 4.4 4.2 2.2 0 4.1-.8 5.2-2.3l-.2-.2c-.5.5-1.1.6-1.6.6"/></svg>