<?xml version="1.0" encoding="utf-8"?>
<!-- Generator: Adobe Illustrator 17.1.0, SVG Export Plug-In . SVG Version: 6.00 Build 0)  -->
<!DOCTYPE svg PUBLIC "-//W3C//DTD SVG 1.1//EN" "http://www.w3.org/Graphics/SVG/1.1/DTD/svg11.dtd">
<svg version="1.1" id="Layer_1" xmlns="http://www.w3.org/2000/svg" xmlns:xlink="http://www.w3.org/1999/xlink" x="0px" y="0px"
	 viewBox="0 0 195 121.5" enable-background="new 0 0 195 121.5" xml:space="preserve">
<path fill="#FFFFFF" d="M43.8,111.6c0,0-1.9-0.1-5.8-0.1c-3.9,0-6.6,0.1-6.6,0.1v-0.3c1.5,0,2.2-1,2.2-2.7V96.5
	c0-1.5-0.7-2.1-2.1-2.1l-0.2-0.3c5.9,0,10.8-1.9,10.8-1.9v17.6c0,1.2,0.7,1.5,1.5,1.5V111.6z M33.5,87.2c0-2.2,1.4-3.8,4.4-3.8
	c3,0,4.5,1.7,4.5,3.8c0,2.1-1.5,3.7-4.5,3.7C34.9,90.9,33.5,89.4,33.5,87.2"/>
<path fill="#FFFFFF" d="M58.1,93.3c-1.1,0-1.5,0.7-1.5,1.4c0,0.6,0.2,1.1,0.5,1.9l3.9,10.7l2.5-7.3c0.5-1.4,0.8-2.8,0.8-3.8
	c0-1.7-0.8-2.9-3.1-2.9V93c0,0,1.7,0.2,4.1,0.2c2.2,0,3.6-0.2,3.6-0.2v0.4c-2,0-3.5,2.3-4.5,5.2l-4.6,13.1h-6l-6.5-16.4
	c-0.5-1.2-0.9-1.9-2.5-1.9V93c0,0,3.5,0.2,7.5,0.2c4,0,5.9-0.2,5.9-0.2V93.3z"/>
<path fill="#FFFFFF" d="M82.9,110.2c2.1,0,3.8-0.6,5.3-1.7l0.2,0.2c-2.1,2.5-4.9,3.7-9,3.7c-7.2,0-11.1-3.8-11.1-9.6
	c0-5.7,5.2-10.5,12-10.5c5.3,0,9.1,2.4,9.3,7.5l-0.5,0.5H77.4c0,0.6,0,1.2,0,1.7C77.4,106.6,79,110.2,82.9,110.2 M81.8,99.5
	c0.1-0.8,0.2-1.5,0.2-2.2c0-3-0.9-4.7-2-4.7c-1.3,0-2.1,2.4-2.5,7.4L81.8,99.5z"/>
<path fill="#FFFFFF" d="M102.3,96.1v13.5c0,1.2,0.7,1.6,2.1,1.6v0.4c0,0-2.4-0.1-6.3-0.1c-3.9,0-6.6,0.1-6.6,0.1v-0.4
	c1.5,0,2.2-1,2.2-2.7V96.5c0-1.5-0.7-2.1-2.1-2.1l-0.1-0.3c5.9,0,10.8-1.9,10.8-1.9v3.5c1.9-0.7,2.8-3.5,5.9-3.5
	c2.2,0,3.7,1.7,3.7,3.7c0,2.1-1.4,4.1-3.9,4.1c-0.9,0-2-0.4-2.5-0.8c0.2-0.4,0.5-1.1,0.5-1.8c0-1-0.5-1.8-1.6-1.8
	C103.5,95.7,102.9,96,102.3,96.1"/>
<path fill="#FFFFFF" d="M129.7,99h-0.4c-0.6-3-2.8-6.5-6.4-6.5c-1.1,0-1.9,0.5-1.9,1.8c0,4.3,10.4,4.8,10.4,11.4
	c0,4.1-3.3,6.7-9.5,6.7c-2.7,0-3.1-0.9-7.8-0.9l-0.3-6.9h0.3c0.8,3.8,3.9,7.4,7.4,7.4c1.5,0,2.4-0.8,2.4-2c0-4.5-10.2-5.2-10.2-11.6
	c0-4,3.6-6.2,9-6.2c2.7,0,4.2,0.9,7.2,0.9L129.7,99z"/>
<path fill="#FFFFFF" d="M146,111.6c0,0-1.9-0.1-5.8-0.1c-3.9,0-6.6,0.1-6.6,0.1v-0.3c1.5,0,2.2-1,2.2-2.7V96.5
	c0-1.5-0.7-2.1-2.1-2.1l-0.2-0.3c5.9,0,10.8-1.9,10.8-1.9v17.6c0,1.2,0.7,1.5,1.5,1.5V111.6z M134.5,87.2c0-2.2,1.4-3.8,4.4-3.8
	c3,0,4.5,1.7,4.5,3.8c0,2.1-1.5,3.7-4.5,3.7C135.9,90.9,134.5,89.4,134.5,87.2"/>
<path fill="#FFFFFF" d="M148.4,103.7c0-6.6,4.7-11.4,12.1-11.4c0.5,0,0.9,0.1,1.4,0.1v-5.7c0-1.4-0.7-1.8-2.1-1.8l-0.2-0.3
	c5.9,0,10.8-1.9,10.8-1.9v25.6c0,1.5,0.7,2,2.1,2l0.2,0.3c-5.9,0-10.5,1.9-10.5,1.9l-0.3-3c-1.9,1-3.4,3-6.3,3
	C151.2,112.4,148.4,108.5,148.4,103.7 M161.9,109v-8.6c0-5.8-1-7.9-2.3-7.9c-1.3,0-2.2,2.5-2.2,9.5c0,6.4,1.4,8,2.4,8
	C160.5,110,160.9,109.5,161.9,109"/>
<path fill="#FFFFFF" d="M188.3,110.2c2.1,0,3.8-0.6,5.3-1.7l0.2,0.2c-2.1,2.5-4.9,3.7-9,3.7c-7.2,0-11.1-3.8-11.1-9.6
	c0-5.7,5.2-10.5,12-10.5c5.3,0,9.1,2.4,9.3,7.5l-0.5,0.5h-11.7c0,0.6,0,1.2,0,1.7C182.8,106.6,184.4,110.2,188.3,110.2 M187.2,99.5
	c0.1-0.8,0.2-1.5,0.2-2.2c0-3-0.9-4.7-2-4.7c-1.3,0-2,2.4-2.5,7.4L187.2,99.5z"/>
<path fill="#FFFFFF" d="M46.4,116.3c0-1.2-0.3-2.3-1.6-3.6c0.7-0.6,1.7-1,2.8-1c2.2,0,3.5,1.5,3.5,3.1c0,2.3-1.6,6.7-10.9,6.7
	c-9.3,0-19-4.5-22.1-14.8l-1.5-4.8c-0.6-1.9-1.2-3.1-3.5-3.1v8.9c0,2.8,0.9,3.4,2.9,3.4v0.4c0,0-3.4-0.1-7.4-0.1
	c-4,0-7.4,0.1-7.4,0.1v-0.4c2,0,2.9-1.8,2.9-4.8V88.3c0-2.8-0.9-3.4-2.9-3.4v-0.4c0,0,3.4,0.1,7.4,0.1c2.7,0,5-0.1,7.7-0.1
	c5.7,0,10.7,1.7,10.7,6.9c0,3.6-2.9,6.5-9.7,7.2v0.2c4.6,0,7.9,2.3,9.8,7l1.7,4.3c2.6,6.7,6.1,11,11.4,11
	C46.4,121,46.4,117.4,46.4,116.3 M13.2,98.4c3.1,0,4.6-2.5,4.6-7.1c0-3.7-1.1-6.4-3.6-6.4c-0.3,0-0.7,0-1,0.2V98.4z"/>
<path fill="#FFFFFF" d="M45.1,63.1c0-8.3,5.5-14.9,14.6-14.9c9.1,0,14.3,5.5,14.3,13.6c0,7.7-4.7,14-12.9,14.9
	c6.9,0.7,18.8,5.5,30.2,5.5c5.8,0,9.8-0.9,13.2-2.6l0.2,0.2c-3.3,5.5-8.4,8.8-16,8.8c-11.1,0-23.9-11.8-29.8-11.8
	C50.3,76.8,45.1,71.3,45.1,63.1 M63.8,62.9c0-8.8-2.1-14.3-4.7-14.3c-2.3,0-3.7,3.5-3.7,13.5c0,9,2.2,14.3,4.7,14.3
	C62.4,76.4,63.8,73,63.8,62.9"/>
<path fill="#FFFFFF" d="M88.5,57.5l9.8-0.3l0.3,0.3v15.2c0,1.5,0.6,2,2,2l0.2,0.3c-5.9,0-10.5,1.9-10.5,1.9l-0.4-3
	c-2.6,0.9-4.3,3-7.4,3c-3.1,0-4.9-1.9-4.9-5.4V59.9c0-1.8-0.6-2.1-2.1-2.1v-0.4L86,57.1l0.3,0.3v15c0,1.1,0.7,1.7,1.4,1.7
	s1.2-0.3,2.2-0.6V59.3c0-1.2-0.7-1.5-1.5-1.5V57.5z"/>
<path fill="#FFFFFF" d="M116.6,74.7c2.1,0,3.8-0.6,5.3-1.7l0.2,0.2c-2.1,2.5-4.9,3.7-9,3.7c-7.2,0-11.1-3.8-11.1-9.6
	c0-5.7,5.2-10.5,12-10.5c5.3,0,9.1,2.4,9.3,7.5l-0.5,0.5h-11.7c0,0.6,0,1.2,0,1.7C111.1,71,112.7,74.7,116.6,74.7 M115.5,63.9
	c0.1-0.8,0.1-1.5,0.1-2.2c0-3-0.9-4.7-2-4.7c-1.3,0-2.1,2.4-2.5,7.4L115.5,63.9z"/>
<path fill="#FFFFFF" d="M139.3,74.7c2.1,0,3.8-0.6,5.3-1.7l0.2,0.2c-2.1,2.5-4.9,3.7-9,3.7c-7.2,0-11.1-3.8-11.1-9.6
	c0-5.7,5.2-10.5,12-10.5c5.3,0,9.1,2.4,9.3,7.5l-0.5,0.5h-11.7c0,0.6,0,1.2,0,1.7C133.8,71,135.4,74.7,139.3,74.7 M138.2,63.9
	c0.1-0.8,0.1-1.5,0.1-2.2c0-3-0.8-4.7-2-4.7c-1.3,0-2.1,2.4-2.5,7.4L138.2,63.9z"/>
<path fill="#FFFFFF" d="M159.7,76.1c0,0-1.9-0.1-5.8-0.1c-3.9,0-6.6,0.1-6.6,0.1v-0.4c1.5,0,2.2-1,2.2-2.7V61c0-1.5-0.7-2.1-2-2.1
	l-0.2-0.3c5.9,0,10.8-1.9,10.8-1.9v3c2.3-0.9,4.3-3,7.4-3c3.1,0,4.9,1.9,4.9,5.5v11.5c0,1.7,0.6,2.1,2.1,2.1v0.4
	c0,0-2.6-0.1-6.4-0.1c-3.6,0-5.8,0.1-5.8,0.1v-0.4c1,0,1.4-0.5,1.4-1.8V61.2c0-1.1-0.6-1.7-1.4-1.7c-0.7,0-1.2,0.3-2.2,0.6v14.2
	c0,1.2,0.7,1.5,1.5,1.5V76.1z"/>
<path fill="#FFFFFF" d="M190.5,63.5h-0.4c-0.6-3-2.8-6.5-6.4-6.5c-1.1,0-1.9,0.5-1.9,1.8c0,4.3,10.4,4.8,10.4,11.4
	c0,4.1-3.3,6.7-9.5,6.7c-2.7,0-3.1-0.9-7.8-0.9l-0.3-6.9h0.3c0.9,3.8,3.9,7.4,7.4,7.4c1.5,0,2.4-0.8,2.4-2c0-4.5-10.2-5.2-10.2-11.5
	c0-4,3.6-6.2,9-6.2c2.7,0,4.2,0.9,7.2,0.9L190.5,63.5z"/>
<path fill="#1CBBB4" d="M47.4,41.2c0,0-2.6-0.2-8.2-0.2c-5.5,0-9.3,0.2-9.3,0.2v-0.5c2.1,0,3.1-1.5,3.1-3.8V19.8
	c0-2.1-0.9-2.9-2.9-2.9l-0.2-0.4c8.3,0,15.3-2.7,15.3-2.7v24.9c0,1.6,0.9,2.1,2.1,2.1V41.2z M32.8,6.6c0-3.1,2-5.4,6.3-5.4
	c4.2,0,6.3,2.4,6.3,5.4c0,3-2.1,5.3-6.3,5.3C34.8,11.9,32.8,9.7,32.8,6.6"/>
<path fill="#1CBBB4" d="M68.4,41.2c0,0-2.6-0.2-8.2-0.2c-5.5,0-9.3,0.2-9.3,0.2v-0.5c2.1,0,3.1-1.5,3.1-3.8V6c0-2.1-0.9-2.8-2.9-2.8
	l-0.2-0.5C59.2,2.7,66.2,0,66.2,0v38.6c0,1.6,0.9,2.1,2.1,2.1V41.2z"/>
<path fill="#1CBBB4" d="M89.5,15.3c-1.5,0-2.1,0.9-2.1,2c0,0.8,0.2,1.5,0.7,2.7l5.5,15.1l3.6-10.4c0.7-2,1.2-4,1.2-5.4
	c0-2.4-1.2-4.1-4.3-4.1v-0.5c0,0,2.5,0.2,5.8,0.2c3.1,0,5.1-0.2,5.1-0.2v0.5c-2.8,0-4.9,3.3-6.4,7.4l-7,19.9
	c-1.9,5.3-4.1,11.6-10.2,11.6c-4.7,0-7.4-2.7-7.4-6.1c0-3,2.3-5.5,6-5.5c3.8,0,5.5,2.8,5.5,4.8c-2.3,0.5-3.6,2-3.6,3.6
	c0,1.1,0.7,1.9,1.8,1.9c3.3,0,5.9-6.4,7.1-9.8l0.6-1.8h-8L74.1,18c-0.7-1.7-1.3-2.7-3.5-2.7v-0.5c0,0,5,0.2,10.6,0.2
	c5.6,0,8.3-0.2,8.3-0.2V15.3z"/>
<path fill="#1CBBB4" d="M50.4,42.5c-2.7,1.8-7.5,3-11.9,2.7c-9.2-0.6-13.1-4.7-21.5-4.7V10.2c0-4.3,1.3-6.9,4.1-6.9V2.7
	c0,0-4.8,0.2-10.5,0.2C4.8,2.9,0,2.7,0,2.7v0.6c2.8,0,4.1,1,4.1,4.9v28.3c0,3.9-1.3,4.2-4.1,4.2v0.6c0,0,1.6-0.1,4.1-0.1
	c3.6,0,8.1-0.2,11.4,0.8c8.9,2.8,16.3,9.4,22.8,9.4c6.1,0,9.5-2.9,12.2-8.5L50.4,42.5z"/>
<path fill="#FFFFFF" d="M22.6,75c-0.8,0-1.5-0.5-1.5-2.5c0-2.7,0.4-4.5,0.4-8.2c0-5.3-2.2-7.8-8.9-7.8c-4.8,0-10.1,1.8-10.1,5.1
	c0,1.8,1.4,3,3.5,3c1.2,0,3.1-0.5,4.1-1.4C9.5,62,9.1,61,9.1,59.6c0-1.6,0.7-2.9,2.2-2.9s2,1.1,2,3.8c0,3-0.2,5.6-0.2,5.6
	c-7.6,0-11.7,2.4-11.7,6.4c0,3,2.5,4.2,5.3,4.2c3.4,0,5.5-1.8,7.2-2.3c1.1,1.6,3,2.2,5.1,2.2c2.3,0,4.3-0.8,5-2.1l-0.2-0.1
	C23.5,74.7,23,75,22.6,75 M11.8,74.6c-1.2,0-1.8-1.1-1.8-2.9c0-2.5,0.9-4.8,3-5.2c0,0-0.2,1.1-0.2,3.2c0,3.4,0.8,4.4,0.8,4.4
	C12.9,74.3,12.4,74.6,11.8,74.6"/>
<path fill="#FFFFFF" d="M36.2,74.2c-0.8,0-1.6-0.5-1.6-1.8V57.5H37v-0.4h-2.4v-5c-0.2,0-0.3-0.1-0.5-0.1c-2.1,2.8-5.9,5.2-9.6,5.2
	v0.4H26v13.7c0,4.2,2.3,5.5,5.7,5.5c2.8,0,5.3-1.1,6.7-3l-0.2-0.2C37.6,74,36.8,74.2,36.2,74.2"/>
</svg>
