<?xml version="1.0" encoding="utf-8"?>
<!-- Generator: Adobe Illustrator 18.0.0, SVG Export Plug-In . SVG Version: 6.00 Build 0)  -->
<!DOCTYPE svg PUBLIC "-//W3C//DTD SVG 1.1//EN" "http://www.w3.org/Graphics/SVG/1.1/DTD/svg11.dtd">
<svg version="1.1" id="Layer_1" xmlns="http://www.w3.org/2000/svg" xmlns:xlink="http://www.w3.org/1999/xlink" x="0px" y="0px"
	 viewBox="225 253.3 150 93.5" enable-background="new 225 253.3 150 93.5" xml:space="preserve">
<path fill="#FFFFFF" d="M258.7,339.1c0,0-1.5-0.1-4.5-0.1s-5.1,0.1-5.1,0.1v-0.2c1.2,0,1.7-0.8,1.7-2.1v-9.3c0-1.2-0.5-1.6-1.6-1.6
	l-0.2-0.2c4.5,0,8.3-1.5,8.3-1.5v13.5c0,0.9,0.5,1.2,1.2,1.2v0.2H258.7z M250.8,320.3c0-1.7,1.1-2.9,3.4-2.9s3.5,1.3,3.5,2.9
	c0,1.6-1.2,2.8-3.5,2.8S250.8,322,250.8,320.3"/>
<path fill="#FFFFFF" d="M269.7,325c-0.8,0-1.2,0.5-1.2,1.1c0,0.5,0.2,0.8,0.4,1.5l3,8.2l1.9-5.6c0.4-1.1,0.6-2.2,0.6-2.9
	c0-1.3-0.6-2.2-2.4-2.2v-0.2c0,0,1.3,0.2,3.2,0.2c1.7,0,2.8-0.2,2.8-0.2v0.3c-1.5,0-2.7,1.8-3.5,4l-3.5,10.1h-4.6l-5-12.6
	c-0.4-0.9-0.7-1.5-1.9-1.5v-0.3c0,0,2.7,0.2,5.8,0.2s4.5-0.2,4.5-0.2L269.7,325L269.7,325z"/>
<path fill="#FFFFFF" d="M288.8,338c1.6,0,2.9-0.5,4.1-1.3l0.2,0.2c-1.6,1.9-3.8,2.8-6.9,2.8c-5.5,0-8.5-2.9-8.5-7.4
	c0-4.4,4-8.1,9.2-8.1c4.1,0,7,1.8,7.2,5.8l-0.4,0.4h-9c0,0.5,0,0.9,0,1.3C284.5,335.3,285.8,338,288.8,338 M287.9,329.8
	c0.1-0.6,0.2-1.2,0.2-1.7c0-2.3-0.7-3.6-1.5-3.6c-1,0-1.6,1.8-1.9,5.7L287.9,329.8z"/>
<path fill="#FFFFFF" d="M303.7,327.2v10.4c0,0.9,0.5,1.2,1.6,1.2v0.3c0,0-1.8-0.1-4.8-0.1s-5.1,0.1-5.1,0.1v-0.3
	c1.2,0,1.7-0.8,1.7-2.1v-9.2c0-1.2-0.5-1.6-1.6-1.6l-0.1-0.2c4.5,0,8.3-1.5,8.3-1.5v2.7c1.5-0.5,2.2-2.7,4.5-2.7
	c1.7,0,2.8,1.3,2.8,2.8c0,1.6-1.1,3.2-3,3.2c-0.7,0-1.5-0.3-1.9-0.6c0.2-0.3,0.4-0.8,0.4-1.4c0-0.8-0.4-1.4-1.2-1.4
	C304.6,326.9,304.2,327.1,303.7,327.2"/>
<path fill="#FFFFFF" d="M324.8,329.4h-0.3c-0.5-2.3-2.2-5-4.9-5c-0.8,0-1.5,0.4-1.5,1.4c0,3.3,8,3.7,8,8.8c0,3.2-2.5,5.2-7.3,5.2
	c-2.1,0-2.4-0.7-6-0.7l-0.2-5.3h0.2c0.6,2.9,3,5.7,5.7,5.7c1.2,0,1.8-0.6,1.8-1.5c0-3.5-7.8-4-7.8-8.9c0-3.1,2.8-4.8,6.9-4.8
	c2.1,0,3.2,0.7,5.5,0.7L324.8,329.4z"/>
<path fill="#FFFFFF" d="M337.3,339.1c0,0-1.5-0.1-4.5-0.1s-5.1,0.1-5.1,0.1v-0.2c1.2,0,1.7-0.8,1.7-2.1v-9.3c0-1.2-0.5-1.6-1.6-1.6
	l-0.2-0.2c4.5,0,8.3-1.5,8.3-1.5v13.5c0,0.9,0.5,1.2,1.2,1.2v0.2H337.3z M328.5,320.3c0-1.7,1.1-2.9,3.4-2.9c2.3,0,3.5,1.3,3.5,2.9
	c0,1.6-1.2,2.8-3.5,2.8C329.5,323.2,328.5,322,328.5,320.3"/>
<path fill="#FFFFFF" d="M339.2,333c0-5.1,3.6-8.8,9.3-8.8c0.4,0,0.7,0.1,1.1,0.1V320c0-1.1-0.5-1.4-1.6-1.4l-0.2-0.2
	c4.5,0,8.3-1.5,8.3-1.5v19.7c0,1.2,0.5,1.5,1.6,1.5l0.2,0.2c-4.5,0-8.1,1.5-8.1,1.5l-0.2-2.3c-1.5,0.8-2.6,2.3-4.8,2.3
	C341.3,339.7,339.2,336.7,339.2,333 M349.5,337.1v-6.6c0-4.5-0.8-6.1-1.8-6.1s-1.7,1.9-1.7,7.3c0,4.9,1.1,6.2,1.8,6.2
	C348.5,337.9,348.8,337.5,349.5,337.1"/>
<path fill="#FFFFFF" d="M369.8,338c1.6,0,2.9-0.5,4.1-1.3l0.2,0.2c-1.6,1.9-3.8,2.8-6.9,2.8c-5.5,0-8.5-2.9-8.5-7.4
	c0-4.4,4-8.1,9.2-8.1c4.1,0,7,1.8,7.2,5.8l-0.4,0.4h-9c0,0.5,0,0.9,0,1.3C365.6,335.3,366.8,338,369.8,338 M369,329.8
	c0.1-0.6,0.2-1.2,0.2-1.7c0-2.3-0.7-3.6-1.5-3.6c-1,0-1.5,1.8-1.9,5.7L369,329.8z"/>
<path fill="#FFFFFF" d="M260.7,342.7c0-0.9-0.2-1.8-1.2-2.8c0.5-0.5,1.3-0.8,2.2-0.8c1.7,0,2.7,1.2,2.7,2.4c0,1.8-1.2,5.2-8.4,5.2
	c-7.2,0-14.6-3.5-17-11.4l-1.2-3.7c-0.5-1.5-0.9-2.4-2.7-2.4v6.8c0,2.2,0.7,2.6,2.2,2.6v0.3c0,0-2.6-0.1-5.7-0.1s-5.7,0.1-5.7,0.1
	v-0.3c1.5,0,2.2-1.4,2.2-3.7v-13.8c0-2.2-0.7-2.6-2.2-2.6v-0.3c0,0,2.6,0.1,5.7,0.1c2.1,0,3.8-0.1,5.9-0.1c4.4,0,8.2,1.3,8.2,5.3
	c0,2.8-2.2,5-7.5,5.5v0.2c3.5,0,6.1,1.8,7.5,5.4l1.3,3.3c2,5.2,4.7,8.5,8.8,8.5C260.7,346.3,260.7,343.6,260.7,342.7 M235.2,329
	c2.4,0,3.5-1.9,3.5-5.5c0-2.8-0.8-4.9-2.8-4.9c-0.2,0-0.5,0-0.8,0.2C235.2,318.7,235.2,329,235.2,329z"/>
<path fill="#FFFFFF" d="M259.7,301.8c0-6.4,4.2-11.5,11.2-11.5s11,4.2,11,10.5c0,5.9-3.6,10.8-9.9,11.5c5.3,0.5,14.5,4.2,23.2,4.2
	c4.5,0,7.5-0.7,10.2-2l0.2,0.2c-2.5,4.2-6.5,6.8-12.3,6.8c-8.5,0-18.4-9.1-22.9-9.1C263.7,312.3,259.7,308.1,259.7,301.8
	 M274.1,301.7c0-6.8-1.6-11-3.6-11c-1.8,0-2.8,2.7-2.8,10.4c0,6.9,1.7,11,3.6,11C273,312,274.1,309.4,274.1,301.7"/>
<path fill="#FFFFFF" d="M293.1,297.5l7.5-0.2l0.2,0.2v11.7c0,1.2,0.5,1.5,1.5,1.5l0.2,0.2c-4.5,0-8.1,1.5-8.1,1.5l-0.3-2.3
	c-2,0.7-3.3,2.3-5.7,2.3s-3.8-1.5-3.8-4.2v-8.9c0-1.4-0.5-1.6-1.6-1.6v-0.3l8.1-0.2l0.2,0.2V309c0,0.8,0.5,1.3,1.1,1.3
	c0.5,0,0.9-0.2,1.7-0.5v-10.9c0-0.9-0.5-1.2-1.2-1.2L293.1,297.5L293.1,297.5z"/>
<path fill="#FFFFFF" d="M314.7,310.7c1.6,0,2.9-0.5,4.1-1.3l0.2,0.2c-1.6,1.9-3.8,2.8-6.9,2.8c-5.5,0-8.5-2.9-8.5-7.4
	c0-4.4,4-8.1,9.2-8.1c4.1,0,7,1.8,7.2,5.8l-0.4,0.4h-9c0,0.5,0,0.9,0,1.3C310.5,307.9,311.7,310.7,314.7,310.7 M313.8,302.4
	c0.1-0.6,0.1-1.2,0.1-1.7c0-2.3-0.7-3.6-1.5-3.6c-1,0-1.6,1.8-1.9,5.7L313.8,302.4z"/>
<path fill="#FFFFFF" d="M332.2,310.7c1.6,0,2.9-0.5,4.1-1.3l0.2,0.2c-1.6,1.9-3.8,2.8-6.9,2.8c-5.5,0-8.5-2.9-8.5-7.4
	c0-4.4,4-8.1,9.2-8.1c4.1,0,7,1.8,7.2,5.8l-0.4,0.4h-9c0,0.5,0,0.9,0,1.3C327.9,307.9,329.2,310.7,332.2,310.7 M331.3,302.4
	c0.1-0.6,0.1-1.2,0.1-1.7c0-2.3-0.6-3.6-1.5-3.6c-1,0-1.6,1.8-1.9,5.7L331.3,302.4z"/>
<path fill="#FFFFFF" d="M347.8,311.8c0,0-1.5-0.1-4.5-0.1s-5.1,0.1-5.1,0.1v-0.3c1.2,0,1.7-0.8,1.7-2.1v-9.2c0-1.2-0.5-1.6-1.5-1.6
	l-0.2-0.2c4.5,0,8.3-1.5,8.3-1.5v2.3c1.8-0.7,3.3-2.3,5.7-2.3s3.8,1.5,3.8,4.2v8.8c0,1.3,0.5,1.6,1.6,1.6v0.3c0,0-2-0.1-4.9-0.1
	c-2.8,0-4.5,0.1-4.5,0.1v-0.3c0.8,0,1.1-0.4,1.1-1.4v-9.8c0-0.8-0.5-1.3-1.1-1.3c-0.5,0-0.9,0.2-1.7,0.5v10.9c0,0.9,0.5,1.2,1.2,1.2
	L347.8,311.8L347.8,311.8z"/>
<path fill="#FFFFFF" d="M371.5,302.1h-0.3c-0.5-2.3-2.2-5-4.9-5c-0.8,0-1.5,0.4-1.5,1.4c0,3.3,8,3.7,8,8.8c0,3.2-2.5,5.2-7.3,5.2
	c-2.1,0-2.4-0.7-6-0.7l-0.2-5.3h0.2c0.7,2.9,3,5.7,5.7,5.7c1.2,0,1.8-0.6,1.8-1.5c0-3.5-7.8-4-7.8-8.8c0-3.1,2.8-4.8,6.9-4.8
	c2.1,0,3.2,0.7,5.5,0.7L371.5,302.1z"/>
<path fill="#1CBBB4" d="M261.5,285c0,0-2-0.2-6.3-0.2c-4.2,0-7.2,0.2-7.2,0.2v-0.4c1.6,0,2.4-1.2,2.4-2.9v-13.2
	c0-1.6-0.7-2.2-2.2-2.2L248,266c6.4,0,11.8-2.1,11.8-2.1V283c0,1.2,0.7,1.6,1.6,1.6L261.5,285L261.5,285z M250.2,258.3
	c0-2.4,1.5-4.2,4.8-4.2c3.2,0,4.8,1.8,4.8,4.2c0,2.3-1.6,4.1-4.8,4.1C251.8,262.4,250.2,260.7,250.2,258.3"/>
<path fill="#1CBBB4" d="M277.6,285c0,0-2-0.2-6.3-0.2c-4.2,0-7.2,0.2-7.2,0.2v-0.4c1.6,0,2.4-1.2,2.4-2.9v-23.8
	c0-1.6-0.7-2.2-2.2-2.2l-0.2-0.4c6.4,0,11.8-2.1,11.8-2.1V283c0,1.2,0.7,1.6,1.6,1.6L277.6,285L277.6,285z"/>
<path fill="#1CBBB4" d="M293.8,265c-1.2,0-1.6,0.7-1.6,1.5c0,0.6,0.2,1.2,0.5,2.1l4.2,11.6l2.8-8c0.5-1.5,0.9-3.1,0.9-4.2
	c0-1.8-0.9-3.2-3.3-3.2v-0.4c0,0,1.9,0.2,4.5,0.2c2.4,0,3.9-0.2,3.9-0.2v0.4c-2.2,0-3.8,2.5-4.9,5.7l-5.4,15.3
	c-1.5,4.1-3.2,8.9-7.8,8.9c-3.6,0-5.7-2.1-5.7-4.7c0-2.3,1.8-4.2,4.6-4.2c2.9,0,4.2,2.2,4.2,3.7c-1.8,0.4-2.8,1.5-2.8,2.8
	c0,0.8,0.5,1.5,1.4,1.5c2.5,0,4.5-4.9,5.5-7.5l0.5-1.4h-6.2l-7.2-17.8c-0.5-1.3-1-2.1-2.7-2.1v-0.4c0,0,3.8,0.2,8.2,0.2
	c4.3,0,6.4-0.2,6.4-0.2V265z"/>
<path fill="#1CBBB4" d="M263.8,286c-2.1,1.4-5.8,2.3-9.2,2.1c-7.1-0.5-10.1-3.6-16.5-3.6v-23.3c0-3.3,1-5.3,3.2-5.3v-0.5
	c0,0-3.7,0.2-8.1,0.2c-4.5,0-8.2-0.2-8.2-0.2v0.5c2.2,0,3.2,0.8,3.2,3.8v21.8c0,3-1,3.2-3.2,3.2v0.5c0,0,1.2-0.1,3.2-0.1
	c2.8,0,6.2-0.2,8.8,0.6c6.8,2.2,12.5,7.2,17.5,7.2c4.7,0,7.3-2.2,9.4-6.5L263.8,286z"/>
<path fill="#FFFFFF" d="M242.4,311c-0.6,0-1.2-0.4-1.2-1.9c0-2.1,0.3-3.5,0.3-6.3c0-4.1-1.7-6-6.8-6c-3.7,0-7.8,1.4-7.8,3.9
	c0,1.4,1.1,2.3,2.7,2.3c0.9,0,2.4-0.4,3.2-1.1c-0.5-0.9-0.8-1.7-0.8-2.8c0-1.2,0.5-2.2,1.7-2.2c1.2,0,1.5,0.8,1.5,2.9
	c0,2.3-0.2,4.3-0.2,4.3c-5.8,0-9,1.8-9,4.9c0,2.3,1.9,3.2,4.1,3.2c2.6,0,4.2-1.4,5.5-1.8c0.8,1.2,2.3,1.7,3.9,1.7
	c1.8,0,3.3-0.6,3.8-1.6l-0.2-0.1C243.1,310.7,242.7,311,242.4,311 M234.1,310.7c-0.9,0-1.4-0.8-1.4-2.2c0-1.9,0.7-3.7,2.3-4
	c0,0-0.2,0.8-0.2,2.5c0,2.6,0.6,3.4,0.6,3.4C234.9,310.4,234.5,310.7,234.1,310.7"/>
<path fill="#FFFFFF" d="M252.8,310.3c-0.6,0-1.2-0.4-1.2-1.4v-11.5h1.8v-0.3h-1.8v-3.8c-0.2,0-0.2-0.1-0.4-0.1c-1.6,2.2-4.5,4-7.4,4
	v0.3h1.2v10.5c0,3.2,1.8,4.2,4.4,4.2c2.2,0,4.1-0.8,5.2-2.3l-0.2-0.2C253.9,310.2,253.3,310.3,252.8,310.3"/>
</svg>
