<svg xmlns="http://www.w3.org/2000/svg" viewBox="0 0 122 118.7" enable-background="new 0 0 122 118.7"><path fill="#120F26" d="M122 0h-122v69h43.5l17.3 17.4 17.4-17.4h43.8z"/><circle fill="#01BBB3" cx="61.2" cy="106.3" r="12.3"/><g fill="#FFCD00"><path d="M109.4 39.9v-1.9h-2.6v-4.9h2.5v-1.8h-2.5v-3.6h2.6v-1.8h-4.7v14h4.7zm-9.7-12.3h.5c.5 0 .8.1.8 1v8.6c0 .9-.3 1-.8 1h-.5v-10.6zm-2 12.3h3c1.6 0 2.5-1.2 2.5-2.5v-8.4c0-2.5-.9-3.2-2.9-3.2h-2.5v14.1zm-1.9 0v-14h-2.1v14h2.1zm-6.9-5.3h-2.1v3.2c0 1.8 1.4 2.4 2.7 2.4 1.3 0 2.7-.5 2.7-2.4v-2.5c0-1.4-3.4-4.4-3.4-5.4v-1.7c0-.7.2-.9.6-.9.4 0 .6.2.6.9v2.8h2.1v-3c0-1.8-1.4-2.4-2.7-2.4-1.3 0-2.7.5-2.7 2.4v2c0 2.3 3.4 4.2 3.4 6.2v1.5c0 .7-.2.9-.6.9-.4 0-.6-.2-.6-.9v-3.1zm-7-7.1h.5c.5 0 .8.2.8.7v2.5c0 .5-.2.9-.9.9h-.4v-4.1zm0 12.4v-6.5c1 0 1.3.3 1.3 1.1v5.4h2v-5.8c-.1-1.3-1.1-1.6-2-1.7 1.8-.2 2-1.1 2-2.1v-2c0-1.8-1-2.4-2.7-2.4h-2.7v14h2.1zm-3.5 0v-1.9h-2.6v-4.9h2.5v-1.8h-2.5v-3.6h2.6v-1.8h-4.6v14h4.6zm-12.2-14l1.6 14h3.2l1.7-14h-2.1l-.6 6.3-.4 5-.5-5.5-.6-5.8h-2.3zm-1.3 14v-14h-2.1v14h2.1zM57.7 27.5h.5c.5 0 .8.2.8.7v2.5c0 .5-.2.9-.9.9h-.4v-4.1zm0 12.4v-6.6c.9 0 1.3.3 1.3 1.1v5.5h2v-5.9c-.1-1.3-1.1-1.6-2-1.7 1.7-.2 2-1 2-2.1v-2c0-1.8-1-2.4-2.7-2.4h-2.7v14h2.1zM47.9 34.6h-2.1v3.2c0 1.8 1.4 2.4 2.7 2.4 1.3 0 2.7-.5 2.7-2.4v-2.5c0-1.4-3.4-4.4-3.4-5.4v-1.7c0-.7.2-.9.6-.9.4 0 .6.2.6.9v2.8h2.1v-3c0-1.8-1.4-2.4-2.7-2.4-1.3 0-2.7.5-2.7 2.4v2c0 2.3 3.4 4.2 3.4 6.2v1.5c0 .7-.2.9-.6.9-.4 0-.6-.2-.6-.9v-3.1zm-24.4-8.7v11.7c0 .7-.2.9-.6.9-.4 0-.6-.2-.6-.9v-11.7h-2.1v11.9c0 1.8 1.4 2.4 2.7 2.4 1.3 0 2.7-.5 2.7-2.4v-11.9h-2.1zM15.7 38.5c-.4 0-.6-.2-.6-.9v-9.5c0-.7.2-.9.6-.9.4 0 .6.2.6.9v9.5c0 .7-.2.9-.6.9zm-1.6 1.8c0-.3.4-.3.4-.3h.2c.3.1.6.1 1 .1 1.3 0 2.7-.5 2.7-2.4v-9.7c0-1.8-1.4-2.4-2.7-2.4-1.3 0-2.7.5-2.7 2.4v9.8c0 .8.3 1.3.7 1.7-.1.4-.1.8-.1.8 0 2.2 1.4 2.2 1.4 2.2h2.6c.4 0 .5.4.5.4h.5v-.3c0-2.1-1.9-2-1.9-2h-2.2c0 .1-.4.1-.4-.3zM41 39.9v-11.8c0-.7.2-.9.6-.9.4 0 .6.2.6.9v11.7h2.1v-11.8c0-1.8-1.4-2.4-2.7-2.4-1.3 0-2.7.5-2.7 2.4v11.9h2.1zM31.9 39.9v-1.9h-2.6v-4.9h2.5v-1.8h-2.5v-3.6h2.6v-1.8h-4.7v14zM37.8 39.9v-1.9h-2.6v-4.9h2.4v-1.8h-2.4v-3.6h2.5v-1.8h-4.6v14z"/></g></svg>