<?xml version="1.0" encoding="utf-8"?>
<!-- Generator: Adobe Illustrator 17.1.0, SVG Export Plug-In . SVG Version: 6.00 Build 0)  -->
<!DOCTYPE svg PUBLIC "-//W3C//DTD SVG 1.1//EN" "http://www.w3.org/Graphics/SVG/1.1/DTD/svg11.dtd">
<svg version="1.1" id="Layer_1" xmlns="http://www.w3.org/2000/svg" xmlns:xlink="http://www.w3.org/1999/xlink" x="0px" y="0px"
	 viewBox="0 0 122 118.7" enable-background="new 0 0 122 118.7" xml:space="preserve">
<polygon fill="#120F26" points="122,0 0,0 0,69 43.5,69 60.8,86.4 78.2,69 122,69 "/>
<circle fill="#01BBB3" cx="61.2" cy="106.3" r="12.3"/>
<g>
	<g>
		<path fill="#FFCD00" d="M109.4,39.9V38h-2.6v-4.9h2.5v-1.8h-2.5v-3.6h2.6v-1.8h-4.7v14H109.4z M99.7,27.6h0.5c0.5,0,0.8,0.1,0.8,1
			v8.6c0,0.9-0.3,1-0.8,1h-0.5V27.6z M97.7,39.9h3c1.6,0,2.5-1.2,2.5-2.5V29c0-2.5-0.9-3.2-2.9-3.2h-2.5V39.9z M95.8,39.9v-14h-2.1
			v14H95.8z M88.9,34.6h-2.1v3.2c0,1.8,1.4,2.4,2.7,2.4c1.3,0,2.7-0.5,2.7-2.4v-2.5c0-1.4-3.4-4.4-3.4-5.4v-1.7
			c0-0.7,0.2-0.9,0.6-0.9c0.4,0,0.6,0.2,0.6,0.9v2.8h2.1V28c0-1.8-1.4-2.4-2.7-2.4c-1.3,0-2.7,0.5-2.7,2.4v2c0,2.3,3.4,4.2,3.4,6.2
			v1.5c0,0.7-0.2,0.9-0.6,0.9c-0.4,0-0.6-0.2-0.6-0.9V34.6z M81.9,27.5h0.5c0.5,0,0.8,0.2,0.8,0.7v2.5c0,0.5-0.2,0.9-0.9,0.9h-0.4
			V27.5z M81.9,39.9v-6.5c1,0,1.3,0.3,1.3,1.1c0,1.6,0,3.3,0,5.4l2,0c0-1.9,0-3.9,0-5.8c-0.1-1.3-1.1-1.6-2-1.7v0
			c1.8-0.2,2-1.1,2-2.1v-2c0-1.8-1-2.4-2.7-2.4h-2.7v14H81.9z M78.4,39.9V38h-2.6v-4.9h2.5v-1.8h-2.5v-3.6h2.6v-1.8h-4.6v14H78.4z
			 M66.2,25.9l1.6,14H71l1.7-14h-2.1l-0.6,6.3c-0.1,1.7-0.3,3.3-0.4,5h0c-0.2-1.4-0.3-4.1-0.5-5.5l-0.6-5.8H66.2z M64.9,39.9v-14
			h-2.1v14H64.9z"/>
		<path fill="#FFCD00" d="M57.7,27.5h0.5c0.5,0,0.8,0.2,0.8,0.7v2.5c0,0.5-0.2,0.9-0.9,0.9h-0.4V27.5z M57.7,39.9v-6.6
			c0.9,0,1.3,0.3,1.3,1.1c0,1.6,0,3.4,0,5.5l2,0c0-1.9,0-4,0-5.9c-0.1-1.3-1.1-1.6-2-1.7v0c1.7-0.2,2-1,2-2.1v-2
			c0-1.8-1-2.4-2.7-2.4h-2.7v14H57.7z"/>
	</g>
	<path fill="#FFCD00" d="M47.9,34.6h-2.1v3.2c0,1.8,1.4,2.4,2.7,2.4c1.3,0,2.7-0.5,2.7-2.4v-2.5c0-1.4-3.4-4.4-3.4-5.4v-1.7
		c0-0.7,0.2-0.9,0.6-0.9c0.4,0,0.6,0.2,0.6,0.9v2.8h2.1V28c0-1.8-1.4-2.4-2.7-2.4c-1.3,0-2.7,0.5-2.7,2.4v2c0,2.3,3.4,4.2,3.4,6.2
		v1.5c0,0.7-0.2,0.9-0.6,0.9c-0.4,0-0.6-0.2-0.6-0.9V34.6z M23.5,25.9v11.7c0,0.7-0.2,0.9-0.6,0.9c-0.4,0-0.6-0.2-0.6-0.9V25.9h-2.1
		v11.9c0,1.8,1.4,2.4,2.7,2.4c1.3,0,2.7-0.5,2.7-2.4V25.9H23.5z"/>
	<path fill="#FFCD00" d="M15.7,38.5c-0.4,0-0.6-0.2-0.6-0.9v-9.5c0-0.7,0.2-0.9,0.6-0.9c0.4,0,0.6,0.2,0.6,0.9v9.5
		C16.3,38.3,16.1,38.5,15.7,38.5z M14.1,40.3c0-0.3,0.4-0.3,0.4-0.3h0.2c0.3,0.1,0.6,0.1,1,0.1c1.3,0,2.7-0.5,2.7-2.4V28
		c0-1.8-1.4-2.4-2.7-2.4c-1.3,0-2.7,0.5-2.7,2.4v9.8c0,0.8,0.3,1.3,0.7,1.7c-0.1,0.4-0.1,0.8-0.1,0.8c0,2.2,1.4,2.2,1.4,2.2
		s2.2,0,2.6,0c0.4,0,0.5,0.4,0.5,0.4h0.5v-0.3c0-2.1-1.9-2-1.9-2h-2.2C14.5,40.7,14.1,40.7,14.1,40.3z"/>
	<path fill="#FFCD00" d="M41,39.9V28.1c0-0.7,0.2-0.9,0.6-0.9c0.4,0,0.6,0.2,0.6,0.9v11.7h2.1V28c0-1.8-1.4-2.4-2.7-2.4
		c-1.3,0-2.7,0.5-2.7,2.4v11.9H41z"/>
	<polygon fill="#FFCD00" points="31.9,39.9 31.9,38 29.3,38 29.3,33.1 31.8,33.1 31.8,31.3 29.3,31.3 29.3,27.7 31.9,27.7 
		31.9,25.9 27.2,25.9 27.2,39.9 	"/>
	<polygon fill="#FFCD00" points="37.8,39.9 37.8,38 35.2,38 35.2,33.1 37.6,33.1 37.6,31.3 35.2,31.3 35.2,27.7 37.7,27.7 
		37.7,25.9 33.1,25.9 33.1,39.9 	"/>
</g>
</svg>
