<?xml version="1.0" encoding="utf-8"?>
<!-- Generator: Adobe Illustrator 17.1.0, SVG Export Plug-In . SVG Version: 6.00 Build 0)  -->
<!DOCTYPE svg PUBLIC "-//W3C//DTD SVG 1.1//EN" "http://www.w3.org/Graphics/SVG/1.1/DTD/svg11.dtd">
<svg version="1.1" id="Layer_1" xmlns="http://www.w3.org/2000/svg" xmlns:xlink="http://www.w3.org/1999/xlink" x="0px" y="0px"
	 viewBox="0 0 129 23.3" enable-background="new 0 0 129 23.3" xml:space="preserve">
<g>
	<g>
		<path fill="#B4B9B5" d="M129,19.1v-2.4h-3.5v-6.6h3.3V7.6h-3.3V2.8h3.5V0.4h-6.3v18.7H129z M116.1,2.6h0.7c0.7,0,1.1,0.2,1.1,1.4
			v11.5c0,1.2-0.3,1.4-1.1,1.4h-0.7V2.6z M113.3,19.1h4c2.2,0,3.3-1.6,3.3-3.4V4.6c0-3.3-1.2-4.2-3.9-4.2h-3.4V19.1z M110.8,19.1
			V0.4H108v18.7H110.8z M101.6,12h-2.8v4.3c0,2.4,1.9,3.2,3.6,3.2c1.7,0,3.7-0.7,3.7-3.2V13c0-1.9-4.5-5.9-4.5-7.3V3.4
			c0-0.9,0.3-1.2,0.9-1.2c0.6,0,0.8,0.2,0.8,1.2v3.7h2.8V3.2c0-2.4-1.9-3.2-3.7-3.2c-1.7,0-3.6,0.7-3.6,3.2v2.7c0,3,4.5,5.6,4.5,8.2
			v2c0,0.9-0.3,1.2-0.8,1.2c-0.6,0-0.9-0.2-0.9-1.2V12z M92.3,2.6h0.7c0.6,0,1,0.2,1,0.9v3.4c0,0.7-0.2,1.2-1.2,1.2h-0.5V2.6z
			 M92.3,19.1v-8.7c1.3-0.1,1.7,0.4,1.7,1.5c0,2.2,0,4.4,0,7.2l2.7,0c0-2.5,0-5.2,0-7.8C96.5,9.6,95.2,9.2,94,9V9
			c2.3-0.3,2.7-1.4,2.7-2.8V3.6c0-2.4-1.4-3.2-3.6-3.2h-3.6v18.7H92.3z M87.6,19.1v-2.4h-3.5v-6.6h3.3V7.6h-3.3V2.8h3.4V0.4h-6.2
			v18.7H87.6z M71.3,0.4l2.1,18.7h4.2l2.2-18.7H77l-0.8,8.4c-0.2,2.2-0.4,4.5-0.6,6.7h-0.1c-0.2-1.9-0.4-5.5-0.6-7.4L74,0.4H71.3z
			 M69.4,19.1V0.4h-2.8v18.7H69.4z"/>
		<path fill="#B4B9B5" d="M59.9,2.6h0.6c0.6,0,1,0.2,1,0.9v3.3c0,0.7-0.2,1.2-1.2,1.2h-0.5V2.6z M59.9,19.1v-8.8
			c1.3-0.1,1.7,0.4,1.7,1.5c0,2.1,0,4.5,0,7.3l2.7,0c0-2.5,0-5.3,0-7.8c-0.1-1.7-1.4-2.1-2.6-2.3V8.9c2.3-0.3,2.7-1.4,2.7-2.8V3.5
			c0-2.4-1.3-3.2-3.5-3.2h-3.6v18.7H59.9z"/>
	</g>
	<path fill="#B4B9B5" d="M46.8,12H44v4.3c0,2.4,1.9,3.2,3.6,3.2c1.7,0,3.7-0.7,3.7-3.2V13c0-1.9-4.5-5.9-4.5-7.3V3.4
		c0-0.9,0.3-1.2,0.9-1.2c0.6,0,0.8,0.2,0.8,1.2v3.7h2.8V3.2c0-2.4-1.9-3.2-3.7-3.2C45.9,0,44,0.7,44,3.2v2.7c0,3,4.5,5.6,4.5,8.2v2
		c0,0.9-0.3,1.2-0.8,1.2c-0.6,0-0.9-0.2-0.9-1.2V12z M14,0.4v15.7c0,0.9-0.3,1.2-0.8,1.2c-0.6,0-0.9-0.2-0.9-1.2V0.4H9.5v15.9
		c0,2.4,1.9,3.2,3.6,3.2c1.7,0,3.7-0.7,3.7-3.2V0.4H14z"/>
	<path fill="#B4B9B5" d="M3.7,17.2c-0.6,0-0.9-0.2-0.9-1.2V3.4c0-0.9,0.3-1.2,0.9-1.2c0.6,0,0.8,0.2,0.8,1.2v12.7
		C4.5,17,4.2,17.2,3.7,17.2z M1.5,19.7c0-0.4,0.6-0.4,0.6-0.4h0.2c0.4,0.1,0.9,0.1,1.3,0.1c1.7,0,3.7-0.7,3.7-3.2V3.2
		C7.3,0.7,5.4,0,3.6,0C1.9,0,0,0.7,0,3.2v13.1c0,1.1,0.4,1.8,1,2.3c-0.2,0.6-0.2,1.1-0.2,1.1c0,3,1.9,3,1.9,3s2.9,0,3.5,0
		c0.6,0,0.7,0.6,0.7,0.6h0.7v-0.4c0-2.8-2.6-2.7-2.6-2.7h-3C2.1,20.2,1.5,20.2,1.5,19.7z"/>
	<path fill="#B4B9B5" d="M37.5,19.1V3.4c0-0.9,0.3-1.2,0.8-1.2c0.6,0,0.9,0.2,0.9,1.2v15.7H42V3.2C42,0.7,40.1,0,38.4,0
		c-1.7,0-3.7,0.7-3.7,3.2v15.9H37.5z"/>
	<polygon fill="#B4B9B5" points="25.3,19.1 25.3,16.7 21.9,16.7 21.9,10.1 25.1,10.1 25.1,7.6 21.9,7.6 21.9,2.8 25.3,2.8 25.3,0.4 
		19.1,0.4 19.1,19.1 	"/>
	<polygon fill="#B4B9B5" points="33.2,19.1 33.2,16.7 29.7,16.7 29.7,10.1 33,10.1 33,7.6 29.7,7.6 29.7,2.8 33.1,2.8 33.1,0.4 
		26.9,0.4 26.9,19.1 	"/>
</g>
</svg>
