<svg xmlns="http://www.w3.org/2000/svg" viewBox="0 245.8 600 108.4" enable-background="new 0 245.8 600 108.4"><g fill="#fff"><path d="M600 334.7v-11.2h-16.3v-30.7h15.3v-11.6h-15.3v-22.3h16.3v-11.2h-29.3v87h29.3zm-60-76.8h3.3c3.3 0 5.1.9 5.1 6.5v53.5c0 5.6-1.4 6.5-5.1 6.5h-3.3v-66.5zm-13 76.8h18.6c10.2 0 15.3-7.4 15.3-15.8v-51.6c0-15.3-5.6-19.5-18.1-19.5h-15.8v86.9zm-11.7 0v-87h-13v87h13zm-42.7-33.1h-13v20c0 11.2 8.8 14.9 16.7 14.9s17.2-3.3 17.2-14.9v-15.3c0-8.8-20.9-27.4-20.9-34v-10.7c0-4.2 1.4-5.6 4.2-5.6 2.8 0 3.7.9 3.7 5.6v17.2h13v-18.1c0-11.2-8.8-14.9-17.2-14.9-7.9 0-16.7 3.3-16.7 14.9v12.6c0 14 20.9 26 20.9 38.1v9.3c0 4.2-1.4 5.6-3.7 5.6-2.8 0-4.2-.9-4.2-5.6v-19.1zm-43.3-43.7h3.3c2.8 0 4.7.9 4.7 4.2v15.8c0 3.3-.9 5.6-5.6 5.6h-2.3v-25.6zm0 76.8v-40.5c6-.5 7.9 1.9 7.9 7v33.5h12.6v-36.3c-.9-7.9-7-9.8-12.6-10.7 10.7-1.4 12.6-6.5 12.6-13v-12.1c0-11.2-6.5-14.9-16.7-14.9h-16.7v87h12.9zm-21.9 0v-11.2h-16.3v-30.7h15.3v-11.6h-15.3v-22.3h15.9v-11.2h-28.8v87h29.2zm-75.8-87l9.8 87h19.5l10.2-87h-13l-3.7 39.1c-.9 10.2-1.9 20.9-2.8 31.2h-.5l-2.8-34.4-4.2-35.8h-12.5zm-8.8 87v-87h-13v87h13zM278.6 257.9h2.8c2.8 0 4.7.9 4.7 4.2v15.3c0 3.3-.9 5.6-5.6 5.6h-2.3v-25.1h.4zm0 76.8v-40.9c6-.5 7.9 1.9 7.9 7v34h12.6v-36.3c-.5-7.9-6.5-9.8-12.1-10.7v-.5c10.7-1.4 12.6-6.5 12.6-13v-12.1c0-11.2-6-14.9-16.3-14.9h-16.7v87h12.1v.4zM217.7 301.6h-13v20c0 11.2 8.8 14.9 16.7 14.9s17.2-3.3 17.2-14.9v-15.3c0-8.8-20.9-27.4-20.9-34v-10.7c0-4.2 1.4-5.6 4.2-5.6 2.8 0 3.7.9 3.7 5.6v17.2h13v-18.1c0-11.2-8.8-14.9-17.2-14.9-7.9 0-16.7 3.3-16.7 14.9v12.6c0 14 20.9 26 20.9 38.1v9.3c0 4.2-1.4 5.6-3.7 5.6-2.8 0-4.2-.9-4.2-5.6v-19.1zm-152.6-53.9v73c0 4.2-1.4 5.6-3.7 5.6-2.8 0-4.2-.9-4.2-5.6v-73h-13v74c0 11.2 8.8 14.9 16.7 14.9 7.9 0 17.2-3.3 17.2-14.9v-74h-13zM17.2 325.8c-2.8 0-4.2-.9-4.2-5.6v-58.6c0-4.2 1.4-5.6 4.2-5.6s3.7.9 3.7 5.6v59.1c0 4.2-1.4 5.1-3.7 5.1zm-10.2 11.6c0-1.9 2.8-1.9 2.8-1.9h.9c1.9.5 4.2.5 6 .5 7.9 0 17.2-3.3 17.2-14.9v-60.5c0-11.6-8.8-14.9-17.2-14.9-7.9 0-16.7 3.3-16.7 14.9v60.9c0 5.1 1.9 8.4 4.7 10.7-.9 2.8-.9 5.1-.9 5.1 0 14 8.8 14 8.8 14h16.3l3.3 2.8h3.3v-1.9c0-13-12.1-12.6-12.1-12.6h-14c.4.2-2.4.2-2.4-2.2zM174.4 334.7v-73c0-4.2 1.4-5.6 3.7-5.6 2.8 0 4.2.9 4.2 5.6v73h13v-74c0-11.6-8.8-14.9-16.7-14.9s-17.2 3.3-17.2 14.9v74h13zM117.7 334.7v-11.2h-15.8v-30.7h14.8v-11.6h-14.8v-22.4h15.8v-11.1h-28.9v87zM154.4 334.7v-11.2h-16.3v-30.7h15.4v-11.6h-15.4v-22.4h15.9v-11.1h-28.9v87z"/></g></svg>