<svg xmlns="http://www.w3.org/2000/svg" viewBox="0 0 172 31" enable-background="new 0 0 172 31"><g fill="#00BBB3"><path d="M172 25.5v-3.3h-4.7v-8.8h4.4v-3.3h-4.4v-6.3h4.7v-3.3h-8.4v24.9h8.4zm-17.2-22h.9c.9 0 1.4.2 1.4 1.9v15.3c0 1.6-.5 1.9-1.4 1.9h-.9v-19.1zm-3.7 22h5.3c2.9 0 4.4-2.1 4.4-4.5v-14.8c0-4.4-1.5-5.6-5.2-5.6h-4.5v24.9zm-3.4 0v-25h-3.7v24.9h3.7zm-12.3-9.5h-3.7v5.7c0 3.3 2.6 4.2 4.8 4.2 2.3 0 4.9-.9 4.9-4.2v-4.4c0-2.5-6-7.9-6-9.7v-3.1c0-1.3.4-1.5 1.2-1.5.7 0 1.1.3 1.1 1.5v4.9h3.7v-5.2c0-3.3-2.6-4.2-4.9-4.2-2.3 0-4.8.9-4.8 4.2v3.6c0 4.1 6 7.5 6 11v2.6c0 1.3-.4 1.5-1.1 1.5-.8 0-1.2-.3-1.2-1.5v-5.4zm-12.4-12.5h.9c.8 0 1.4.3 1.4 1.2v4.5c0 .9-.3 1.6-1.6 1.6h-.7v-7.3zm0 22v-11.7c1.7-.1 2.3.5 2.3 2v9.7h3.6c-.1-3.4 0-6.9 0-10.3-.1-2.3-1.9-2.8-3.5-3v-.2c3.1-.3 3.6-1.9 3.6-3.7v-3.5c0-3.2-1.8-4.2-4.8-4.2h-4.9v24.9h3.7zm-6.2 0v-3.3h-4.6v-8.8h4.4v-3.3h-4.4v-6.3h4.6v-3.3h-8.3v24.9h8.3zm-21.8-25l2.8 24.9h5.6l2.9-24.9h-3.7l-1.1 11.2-.7 9h-.1c-.3-2.5-.6-7.4-.8-9.8l-1.2-10.4h-3.7zm-2.4 25v-25h-3.7v24.9h3.7zM79.9 3.4h.9c.8 0 1.4.3 1.4 1.2v4.5c0 .9-.3 1.6-1.6 1.6h-.7v-7.3zm0 22.1v-11.8c1.7-.1 2.2.5 2.2 2v9.8h3.5c-.1-3.3 0-7.1 0-10.5-.1-2.2-1.9-2.8-3.5-3v-.1c3.1-.3 3.6-1.9 3.6-3.7v-3.5c0-3.2-1.8-4.2-4.7-4.2h-4.8v24.9h3.7zM62.3 16h-3.7v5.7c0 3.3 2.6 4.2 4.8 4.2 2.3 0 4.9-.9 4.9-4.2v-4.4c0-2.5-6-7.9-6-9.7v-3.1c0-1.3.4-1.5 1.2-1.5.7 0 1.1.3 1.1 1.5v4.9h3.7v-5.2c0-3.2-2.5-4.2-4.8-4.2s-4.8.9-4.8 4.2v3.6c0 4.1 6 7.5 6 11v2.6c0 1.3-.4 1.5-1.1 1.5-.8 0-1.2-.3-1.2-1.5v-5.4zm-43.6-15.5v20.9c0 1.3-.4 1.5-1.1 1.5-.8 0-1.2-.3-1.2-1.5v-20.9h-3.7v21.2c0 3.3 2.6 4.2 4.8 4.2 2.3 0 4.9-.9 4.9-4.2v-21.2h-3.7zM4.9 22.9c-.8 0-1.2-.3-1.2-1.5v-16.9c0-1.2.4-1.5 1.2-1.5.7 0 1.1.3 1.1 1.5v16.9c0 1.3-.4 1.5-1.1 1.5zm-2.9 3.4c0-.6.8-.6.8-.6h.3c.6.1 1.1.2 1.7.2 2.3 0 4.9-.9 4.9-4.2v-17.5c0-3.3-2.6-4.2-4.9-4.2-2.2 0-4.8.9-4.8 4.2v17.5c0 1.5.6 2.4 1.3 3.1-.3.8-.2 1.5-.2 1.5 0 4 2.6 4 2.6 4h4.7c.8 0 .9.7.9.7h.9v-.5c0-3.8-3.4-3.6-3.4-3.6h-4s-.8 0-.8-.6zM50 25.5v-21c0-1.2.4-1.5 1.1-1.5.8 0 1.2.3 1.2 1.5v20.9h3.7v-21.2c0-3.2-2.5-4.2-4.8-4.2s-4.9.9-4.9 4.2v21.2h3.7zM33.8 25.5v-3.3h-4.7v-8.8h4.4v-3.2h-4.4v-6.4h4.6v-3.3h-8.3v25zM44.2 25.5v-3.3h-4.6v-8.8h4.4v-3.2h-4.4v-6.4h4.6v-3.3h-8.3v25z"/></g></svg>