<?xml version="1.0" encoding="utf-8"?>
<!-- Generator: Adobe Illustrator 17.1.0, SVG Export Plug-In . SVG Version: 6.00 Build 0)  -->
<!DOCTYPE svg PUBLIC "-//W3C//DTD SVG 1.1//EN" "http://www.w3.org/Graphics/SVG/1.1/DTD/svg11.dtd">
<svg version="1.1" id="Layer_1" xmlns="http://www.w3.org/2000/svg" xmlns:xlink="http://www.w3.org/1999/xlink" x="0px" y="0px"
	 viewBox="0 0 172 31" enable-background="new 0 0 172 31" xml:space="preserve">
<g>
	<g>
		<path fill="#00BBB3" d="M172,25.5v-3.3h-4.7v-8.8h4.4v-3.3h-4.4V3.8h4.7V0.5h-8.4v24.9H172z M154.8,3.5h0.9c0.9,0,1.4,0.2,1.4,1.9
			v15.3c0,1.6-0.5,1.9-1.4,1.9h-0.9V3.5z M151.1,25.5h5.3c2.9,0,4.4-2.1,4.4-4.5V6.2c0-4.4-1.5-5.6-5.2-5.6h-4.5V25.5z M147.7,25.5
			V0.5H144v24.9H147.7z M135.4,16h-3.7v5.7c0,3.3,2.6,4.2,4.8,4.2c2.3,0,4.9-0.9,4.9-4.2v-4.4c0-2.5-6-7.9-6-9.7V4.5
			c0-1.3,0.4-1.5,1.2-1.5c0.7,0,1.1,0.3,1.1,1.5v4.9h3.7V4.2c0-3.3-2.6-4.2-4.9-4.2c-2.3,0-4.8,0.9-4.8,4.2v3.6c0,4.1,6,7.5,6,11
			v2.6c0,1.3-0.4,1.5-1.1,1.5c-0.8,0-1.2-0.3-1.2-1.5V16z M123,3.5h0.9c0.8,0,1.4,0.3,1.4,1.2v4.5c0,0.9-0.3,1.6-1.6,1.6H123V3.5z
			 M123,25.5V13.8c1.7-0.1,2.3,0.5,2.3,2c0,2.9,0,5.9,0,9.7l3.6,0c-0.1-3.4,0-6.9,0-10.3c-0.1-2.3-1.9-2.8-3.5-3V12
			c3.1-0.3,3.6-1.9,3.6-3.7V4.8c0-3.2-1.8-4.2-4.8-4.2h-4.9v24.9H123z M116.8,25.5v-3.3h-4.6v-8.8h4.4v-3.3h-4.4V3.8h4.6V0.5h-8.3
			v24.9H116.8z M95,0.5l2.8,24.9h5.6l2.9-24.9h-3.7l-1.1,11.2c-0.2,3-0.5,6-0.7,9h-0.1c-0.3-2.5-0.6-7.4-0.8-9.8L98.7,0.5H95z
			 M92.6,25.5V0.5h-3.7v24.9H92.6z"/>
		<path fill="#00BBB3" d="M79.9,3.4h0.9c0.8,0,1.4,0.3,1.4,1.2v4.5c0,0.9-0.3,1.6-1.6,1.6h-0.7V3.4z M79.9,25.5V13.7
			c1.7-0.1,2.2,0.5,2.2,2c0,2.9,0,6.1,0,9.8l3.5,0c-0.1-3.3,0-7.1,0-10.5c-0.1-2.2-1.9-2.8-3.5-3v-0.1c3.1-0.3,3.6-1.9,3.6-3.7V4.7
			c0-3.2-1.8-4.2-4.7-4.2h-4.8v24.9H79.9z"/>
	</g>
	<path fill="#00BBB3" d="M62.3,16h-3.7v5.7c0,3.3,2.6,4.2,4.8,4.2c2.3,0,4.9-0.9,4.9-4.2v-4.4c0-2.5-6-7.9-6-9.7V4.5
		c0-1.3,0.4-1.5,1.2-1.5c0.7,0,1.1,0.3,1.1,1.5v4.9h3.7V4.2C68.3,1,65.8,0,63.5,0c-2.3,0-4.8,0.9-4.8,4.2v3.6c0,4.1,6,7.5,6,11v2.6
		c0,1.3-0.4,1.5-1.1,1.5c-0.8,0-1.2-0.3-1.2-1.5V16z M18.7,0.5v20.9c0,1.3-0.4,1.5-1.1,1.5c-0.8,0-1.2-0.3-1.2-1.5V0.5h-3.7v21.2
		c0,3.3,2.6,4.2,4.8,4.2c2.3,0,4.9-0.9,4.9-4.2V0.5H18.7z"/>
	<path fill="#00BBB3" d="M4.9,22.9c-0.8,0-1.2-0.3-1.2-1.5V4.5C3.7,3.3,4.1,3,4.9,3C5.6,3,6,3.3,6,4.5v16.9
		C6,22.7,5.6,22.9,4.9,22.9z M2,26.3c0-0.6,0.8-0.6,0.8-0.6h0.3c0.6,0.1,1.1,0.2,1.7,0.2c2.3,0,4.9-0.9,4.9-4.2V4.2
		C9.7,0.9,7.1,0,4.8,0C2.6,0,0,0.9,0,4.2v17.5c0,1.5,0.6,2.4,1.3,3.1c-0.3,0.8-0.2,1.5-0.2,1.5c0,4,2.6,4,2.6,4s3.9,0,4.7,0
		c0.8,0,0.9,0.7,0.9,0.7h0.9v-0.5c0-3.8-3.4-3.6-3.4-3.6h-4C2.8,26.9,2,26.9,2,26.3z"/>
	<path fill="#00BBB3" d="M50,25.5V4.5C50,3.3,50.4,3,51.1,3c0.8,0,1.2,0.3,1.2,1.5v20.9H56V4.2C56,1,53.5,0,51.2,0
		c-2.3,0-4.9,0.9-4.9,4.2v21.2H50z"/>
	<polygon fill="#00BBB3" points="33.8,25.5 33.8,22.2 29.1,22.2 29.1,13.4 33.5,13.4 33.5,10.2 29.1,10.2 29.1,3.8 33.7,3.8 
		33.7,0.5 25.4,0.5 25.4,25.5 	"/>
	<polygon fill="#00BBB3" points="44.2,25.5 44.2,22.2 39.6,22.2 39.6,13.4 44,13.4 44,10.2 39.6,10.2 39.6,3.8 44.2,3.8 44.2,0.5 
		35.9,0.5 35.9,25.5 	"/>
</g>
</svg>
