<?xml version="1.0" encoding="utf-8"?>
<!-- Generator: Adobe Illustrator 18.0.0, SVG Export Plug-In . SVG Version: 6.00 Build 0)  -->
<!DOCTYPE svg PUBLIC "-//W3C//DTD SVG 1.1//EN" "http://www.w3.org/Graphics/SVG/1.1/DTD/svg11.dtd">
<svg version="1.1" id="Layer_1" xmlns="http://www.w3.org/2000/svg" xmlns:xlink="http://www.w3.org/1999/xlink" x="0px" y="0px"
	 viewBox="0 245.8 600 108.4" enable-background="new 0 245.8 600 108.4" xml:space="preserve">
<g>
	<g>
		<path fill="#FFFFFF" d="M600,334.7v-11.2h-16.3v-30.7h15.3v-11.6h-15.3v-22.3H600v-11.2h-29.3v87H600z M540,257.9h3.3
			c3.3,0,5.1,0.9,5.1,6.5v53.5c0,5.6-1.4,6.5-5.1,6.5H540V257.9z M527,334.7h18.6c10.2,0,15.3-7.4,15.3-15.8v-51.6
			c0-15.3-5.6-19.5-18.1-19.5H527V334.7z M515.3,334.7v-87h-13v87H515.3z M472.6,301.6h-13v20c0,11.2,8.8,14.9,16.7,14.9
			s17.2-3.3,17.2-14.9v-15.3c0-8.8-20.9-27.4-20.9-34v-10.7c0-4.2,1.4-5.6,4.2-5.6c2.8,0,3.7,0.9,3.7,5.6v17.2h13v-18.1
			c0-11.2-8.8-14.9-17.2-14.9c-7.9,0-16.7,3.3-16.7,14.9v12.6c0,14,20.9,26,20.9,38.1v9.3c0,4.2-1.4,5.6-3.7,5.6
			c-2.8,0-4.2-0.9-4.2-5.6V301.6z M429.3,257.9h3.3c2.8,0,4.7,0.9,4.7,4.2v15.8c0,3.3-0.9,5.6-5.6,5.6h-2.3V257.9z M429.3,334.7
			v-40.5c6-0.5,7.9,1.9,7.9,7c0,10.2,0,20.5,0,33.5h12.6c0-11.6,0-24.2,0-36.3c-0.9-7.9-7-9.8-12.6-10.7l0,0
			c10.7-1.4,12.6-6.5,12.6-13v-12.1c0-11.2-6.5-14.9-16.7-14.9h-16.7v87H429.3z M407.4,334.7v-11.2h-16.3v-30.7h15.3v-11.6h-15.3
			v-22.3H407v-11.2h-28.8v87H407.4z M331.6,247.7l9.8,87h19.5l10.2-87h-13l-3.7,39.1c-0.9,10.2-1.9,20.9-2.8,31.2h-0.5
			c-0.9-8.8-1.9-25.6-2.8-34.4l-4.2-35.8H331.6z M322.8,334.7v-87h-13v87H322.8z"/>
		<path fill="#FFFFFF" d="M278.6,257.9h2.8c2.8,0,4.7,0.9,4.7,4.2v15.3c0,3.3-0.9,5.6-5.6,5.6h-2.3v-25.1H278.6z M278.6,334.7v-40.9
			c6-0.5,7.9,1.9,7.9,7c0,9.8,0,20.9,0,34h12.6c0-11.6,0-24.7,0-36.3c-0.5-7.9-6.5-9.8-12.1-10.7v-0.5c10.7-1.4,12.6-6.5,12.6-13
			v-12.1c0-11.2-6-14.9-16.3-14.9h-16.7v87h12.1V334.7z"/>
	</g>
	<path fill="#FFFFFF" d="M217.7,301.6h-13v20c0,11.2,8.8,14.9,16.7,14.9s17.2-3.3,17.2-14.9v-15.3c0-8.8-20.9-27.4-20.9-34v-10.7
		c0-4.2,1.4-5.6,4.2-5.6c2.8,0,3.7,0.9,3.7,5.6v17.2h13v-18.1c0-11.2-8.8-14.9-17.2-14.9c-7.9,0-16.7,3.3-16.7,14.9v12.6
		c0,14,20.9,26,20.9,38.1v9.3c0,4.2-1.4,5.6-3.7,5.6c-2.8,0-4.2-0.9-4.2-5.6V301.6z M65.1,247.7v73c0,4.2-1.4,5.6-3.7,5.6
		c-2.8,0-4.2-0.9-4.2-5.6v-73h-13v74c0,11.2,8.8,14.9,16.7,14.9c7.9,0,17.2-3.3,17.2-14.9v-74H65.1z"/>
	<path fill="#FFFFFF" d="M17.2,325.8c-2.8,0-4.2-0.9-4.2-5.6v-58.6c0-4.2,1.4-5.6,4.2-5.6s3.7,0.9,3.7,5.6v59.1
		C20.9,324.9,19.5,325.8,17.2,325.8z M7,337.4c0-1.9,2.8-1.9,2.8-1.9h0.9c1.9,0.5,4.2,0.5,6,0.5c7.9,0,17.2-3.3,17.2-14.9v-60.5
		c0-11.6-8.8-14.9-17.2-14.9c-7.9,0-16.7,3.3-16.7,14.9v60.9c0,5.1,1.9,8.4,4.7,10.7c-0.9,2.8-0.9,5.1-0.9,5.1c0,14,8.8,14,8.8,14
		s13.5,0,16.3,0s3.3,2.8,3.3,2.8h3.3v-1.9c0-13-12.1-12.6-12.1-12.6h-14C9.8,339.8,7,339.8,7,337.4z"/>
	<path fill="#FFFFFF" d="M174.4,334.7v-73c0-4.2,1.4-5.6,3.7-5.6c2.8,0,4.2,0.9,4.2,5.6v73h13v-74c0-11.6-8.8-14.9-16.7-14.9
		s-17.2,3.3-17.2,14.9v74H174.4z"/>
	<polygon fill="#FFFFFF" points="117.7,334.7 117.7,323.5 101.9,323.5 101.9,292.8 116.7,292.8 116.7,281.2 101.9,281.2 
		101.9,258.8 117.7,258.8 117.7,247.7 88.8,247.7 88.8,334.7 	"/>
	<polygon fill="#FFFFFF" points="154.4,334.7 154.4,323.5 138.1,323.5 138.1,292.8 153.5,292.8 153.5,281.2 138.1,281.2 
		138.1,258.8 154,258.8 154,247.7 125.1,247.7 125.1,334.7 	"/>
</g>
</svg>
